<svg xmlns="http://www.w3.org/2000/svg" width="64.997" height="44.686" viewBox="0 0 64.997 44.686">
  <g id="mail" transform="translate(0 -80)">
    <g id="Group_2" data-name="Group 2" transform="translate(43.085 88.238)">
      <g id="Group_1" data-name="Group 1">
        <path id="Path_21" data-name="Path 21" d="M339.392,159.333,361.3,173.186V144.9Z" transform="translate(-339.392 -144.896)" fill="#fff"/>
      </g>
    </g>
    <g id="Group_4" data-name="Group 4" transform="translate(0 88.238)">
      <g id="Group_3" data-name="Group 3">
        <path id="Path_22" data-name="Path 22" d="M0,144.9v28.29l21.912-13.853Z" transform="translate(0 -144.896)" fill="#fff"/>
      </g>
    </g>
    <g id="Group_6" data-name="Group 6" transform="translate(0.122 80)">
      <g id="Group_5" data-name="Group 5">
        <path id="Path_23" data-name="Path 23" d="M61.773,80H4.9A4.012,4.012,0,0,0,.96,83.457l32.377,21.331L65.713,83.457A4.012,4.012,0,0,0,61.773,80Z" transform="translate(-0.96 -80)" fill="#fff"/>
      </g>
    </g>
    <g id="Group_8" data-name="Group 8" transform="translate(0.13 105.125)">
      <g id="Group_7" data-name="Group 7">
        <path id="Path_24" data-name="Path 24" d="M40.258,277.924,34.51,281.71a2.04,2.04,0,0,1-2.234,0l-5.748-3.79-25.5,16.131a4.005,4.005,0,0,0,3.932,3.429H61.829a4.005,4.005,0,0,0,3.932-3.429Z" transform="translate(-1.024 -277.92)" fill="#fff"/>
      </g>
    </g>
  </g>
</svg>
